<?xml version="1.0" encoding="utf-8"?>
<!-- Generator: Adobe Illustrator 17.0.0, SVG Export Plug-In . SVG Version: 6.00 Build 0)  -->
<!DOCTYPE svg PUBLIC "-//W3C//DTD SVG 1.1//EN" "http://www.w3.org/Graphics/SVG/1.1/DTD/svg11.dtd">
<svg version="1.1" id="Capa_1" xmlns="http://www.w3.org/2000/svg" xmlns:xlink="http://www.w3.org/1999/xlink" x="0px" y="0px"
	 width="28.3px" height="28.3px" viewBox="0 0 28.3 28.3" enable-background="new 0 0 28.3 28.3" xml:space="preserve">
<path fill-rule="evenodd" clip-rule="evenodd" fill="#141414" d="M28.3,14.3c0,0.2,0,0.5,0,0.7l-15-15c0.2,0,0.5,0,0.7,0L28.3,14.3z
	 M28.1,16.7L11.6,0.2c0.2,0,0.5-0.1,0.7-0.1l15.9,15.9C28.2,16.3,28.2,16.5,28.1,16.7z M27.7,18.3L10,0.6c0.2-0.1,0.4-0.1,0.7-0.2
	l17.2,17.2C27.9,17.9,27.8,18.1,27.7,18.3z M27.2,19.7L8.6,1.1C8.8,1,9.1,0.9,9.3,0.9l18.2,18.2C27.4,19.3,27.3,19.5,27.2,19.7z
	 M26.6,21L7.3,1.8C7.5,1.6,7.7,1.5,8,1.4l19,19C26.8,20.6,26.7,20.8,26.6,21z M25.8,22.2L6.1,2.5c0.2-0.1,0.4-0.3,0.6-0.4l19.5,19.5
	C26.1,21.8,26,22,25.8,22.2z M25,23.3L5,3.4C5.2,3.2,5.4,3,5.6,2.9l19.9,19.9C25.3,22.9,25.2,23.1,25,23.3z M24.1,24.3L4,4.3
	c0.2-0.2,0.4-0.4,0.6-0.6l20,20C24.4,23.9,24.2,24.1,24.1,24.3z M23,25.2L3.1,5.3c0.2-0.2,0.4-0.4,0.6-0.7l20,20
	C23.5,24.9,23.2,25.1,23,25.2z M21.9,26.1L2.3,6.5c0.2-0.3,0.3-0.5,0.5-0.8l19.8,19.8C22.4,25.7,22.2,25.9,21.9,26.1z M20.7,26.8
	L1.6,7.7c0.2-0.3,0.3-0.6,0.5-0.9l19.5,19.5C21.2,26.5,21,26.6,20.7,26.8z M19.3,27.4L1,9c0.1-0.3,0.3-0.7,0.4-1L20.3,27
	C20,27.1,19.7,27.2,19.3,27.4z M17.9,27.9L0.5,10.5c0.1-0.4,0.2-0.8,0.4-1.1L19,27.5C18.6,27.6,18.2,27.8,17.9,27.9z M16.3,28.2
	L0.2,12.1c0.1-0.4,0.1-0.9,0.3-1.3l17.1,17.1C17.1,28,16.7,28.1,16.3,28.2z M14.5,28.3L0,13.9c0-0.5,0-1,0.1-1.5L16,28.2
	C15.5,28.3,15,28.3,14.5,28.3z M14.2,28.3c-0.6,0-1.2,0-1.8-0.1L0.1,15.9C0,15.4,0,14.8,0,14.2v0L14.2,28.3L14.2,28.3z M9.9,27.7
	l-9.3-9.3c-0.2-0.7-0.4-1.5-0.5-2.2l12,12C11.4,28.1,10.6,27.9,9.9,27.7z M6.1,25.8l-3.6-3.6c-0.8-1.1-1.4-2.3-1.8-3.6l9,9
	C8.4,27.2,7.2,26.6,6.1,25.8z M2.7,22.5l3.1,3.1C4.6,24.8,3.6,23.7,2.7,22.5z M16.1,0.1l12.2,12.2c0,0.2,0.1,0.5,0.1,0.7l-13-13
	C15.6,0.1,15.8,0.1,16.1,0.1z M18.5,0.7l9.2,9.2c0.1,0.3,0.2,0.6,0.2,0.8L17.6,0.4C17.9,0.5,18.2,0.6,18.5,0.7z M22.1,2.4l3.8,3.8
	c0.3,0.4,0.6,0.9,0.8,1.3l-5.9-5.9C21.3,1.9,21.7,2.2,22.1,2.4z"/>
</svg>
