<?xml version="1.0" encoding="utf-8"?>
<!-- Generator: Adobe Illustrator 17.0.0, SVG Export Plug-In . SVG Version: 6.00 Build 0)  -->
<!DOCTYPE svg PUBLIC "-//W3C//DTD SVG 1.1//EN" "http://www.w3.org/Graphics/SVG/1.1/DTD/svg11.dtd">
<svg version="1.1" id="Capa_1" xmlns="http://www.w3.org/2000/svg" xmlns:xlink="http://www.w3.org/1999/xlink" x="0px" y="0px"
	 width="183.667px" height="14.667px" viewBox="0 0 183.667 14.667" enable-background="new 0 0 183.667 14.667"
	 xml:space="preserve">
<g>
	<path fill="none" stroke="#2AE3FF" stroke-width="2" stroke-miterlimit="10" d="M11,7.26c0,0,0.23,2.581,4.446,2.581
		s4.216-2.559,4.216-2.559"/>
	<path fill="none" stroke="#2AE3FF" stroke-width="2" stroke-miterlimit="10" d="M19.723,7.26c0,0,0-2.536,4.293-2.536
		s4.369,2.536,4.369,2.536s0.23,2.581,4.446,2.581s4.216-2.559,4.216-2.559"/>
	<path fill="none" stroke="#2AE3FF" stroke-width="2" stroke-miterlimit="10" d="M37.326,7.26c0,0,0-2.536,4.293-2.536
		s4.369,2.536,4.369,2.536s0.23,2.581,4.446,2.581s4.216-2.559,4.216-2.559"/>
	<path fill="none" stroke="#2AE3FF" stroke-width="2" stroke-miterlimit="10" d="M54.711,7.26c0,0,0-2.536,4.293-2.536
		s4.369,2.536,4.369,2.536s0.23,2.581,4.446,2.581c4.216,0,4.216-2.559,4.216-2.559"/>
	<path fill="none" stroke="#2AE3FF" stroke-width="2" stroke-miterlimit="10" d="M72.314,7.26c0,0,0-2.536,4.293-2.536
		s4.369,2.536,4.369,2.536s0.23,2.581,4.446,2.581c4.216,0,4.216-2.559,4.216-2.559"/>
	<path fill="none" stroke="#2AE3FF" stroke-width="2" stroke-miterlimit="10" d="M89.7,7.26c0,0,0-2.536,4.293-2.536
		s4.369,2.536,4.369,2.536s0.23,2.581,4.446,2.581s4.216-2.559,4.216-2.559"/>
	<path fill="none" stroke="#2AE3FF" stroke-width="2" stroke-miterlimit="10" d="M107.303,7.26c0,0,0-2.536,4.293-2.536
		s4.369,2.536,4.369,2.536s0.23,2.581,4.446,2.581c4.216,0,4.216-2.559,4.216-2.559"/>
	<path fill="none" stroke="#2AE3FF" stroke-width="2" stroke-miterlimit="10" d="M124.688,7.26c0,0,0-2.536,4.293-2.536
		c4.293,0,4.369,2.536,4.369,2.536s0.23,2.581,4.446,2.581c4.216,0,4.216-2.559,4.216-2.559"/>
	<path fill="none" stroke="#2AE3FF" stroke-width="2" stroke-miterlimit="10" d="M142.291,7.26c0,0,0-2.536,4.293-2.536
		c4.293,0,4.369,2.536,4.369,2.536s0.23,2.581,4.446,2.581s4.216-2.559,4.216-2.559"/>
	<path fill="none" stroke="#2AE3FF" stroke-width="2" stroke-miterlimit="10" d="M159.676,7.26c0,0,0-2.536,4.293-2.536
		c4.293,0,4.369,2.536,4.369,2.536s0.23,2.581,4.446,2.581S177,7.283,177,7.283"/>
</g>
</svg>
